<svg height="480pt" viewBox="0 0 480.81094 480" width="480pt" xmlns="http://www.w3.org/2000/svg"><path d="m144 326.636719c15.914062 2.347656 32.085938 2.347656 48 0 82.75-12.554688 141.84375-86.761719 135.546875-170.222657-6.296875-83.460937-75.847656-147.964843-159.546875-147.964843s-153.25 64.503906-159.546875 147.964843c-6.296875 83.460938 52.796875 157.667969 135.546875 170.222657zm24-286.238281c70.691406 0 128 57.308593 128 128 0 70.691406-57.308594 128-128 128s-128-57.308594-128-128c.082031-70.660157 57.34375-127.917969 128-128zm0 0" fill="#bddbff"/><path d="m168 296.398438c70.691406 0 128-57.308594 128-128 0-70.691407-57.308594-128-128-128s-128 57.308593-128 128c.082031 70.65625 57.34375 127.914062 128 128zm-64-168c0-8.835938 7.164062-16 16-16h32c8.835938 0 16 7.164062 16 16v8h48c8.835938 0 16 7.164062 16 16v48c0 8.835937-7.164062 16-16 16h-96c-8.835938 0-16-7.164063-16-16zm0 0" fill="#f1f2f2"/><path d="m120 216.398438h96c8.835938 0 16-7.164063 16-16v-48c0-8.835938-7.164062-16-16-16h-48v-8c0-8.835938-7.164062-16-16-16h-32c-8.835938 0-16 7.164062-16 16v72c0 8.835937 7.164062 16 16 16zm0 0" fill="#ffda44"/><path d="m390.863281 458.34375c18.746094 18.742188 49.140625 18.742188 67.886719-.007812 18.742188-18.746094 18.742188-49.136719-.007812-67.882813l-90.511719-90.503906-27.429688 27.417969-23.441406 23.511718-16.984375 16.976563zm0 0" fill="#57565c"/><path d="m264.230469 300.511719 54.058593 53.597656 33.710938-33.710937-54.222656-54.222657zm0 0" fill="#c6c5ca"/><path d="m340.816406 327.367188-23.480468 23.488281.023437.023437zm0 0" fill="#ffda44"/><g fill="#231f20"><path d="m168 32.398438c-75.109375 0-136 60.886718-136 136 0 75.109374 60.890625 136 136 136s136-60.890626 136-136c-.082031-75.078126-60.925781-135.917969-136-136zm0 256c-66.273438 0-120-53.726563-120-120 0-66.273438 53.726562-120 120-120s120 53.726562 120 120c-.074219 66.242187-53.757812 119.925781-120 120zm0 0"/><path d="m216 128.398438h-40c0-13.253907-10.746094-24-24-24h-32c-13.253906 0-24 10.746093-24 24v72c0 13.253906 10.746094 24 24 24h96c13.253906 0 24-10.746094 24-24v-48c0-13.253907-10.746094-24-24-24zm8 72c0 4.417968-3.582031 8-8 8h-96c-4.417969 0-8-3.582032-8-8v-72c0-4.417969 3.582031-8 8-8h32c4.417969 0 8 3.582031 8 8v8c0 4.417968 3.582031 8 8 8h48c4.417969 0 8 3.582031 8 8zm0 0"/><path d="m464.398438 384.796875-90.511719-90.503906c-3.121094-3.121094-8.1875-3.121094-11.3125 0l-11.285157 11.289062-44-44c40.011719-59.777343 37.480469-138.410156-6.300781-195.488281-43.777343-57.078125-119.066406-79.910156-187.171875-56.761719-68.109375 23.152344-113.8867185 87.132813-113.816406 159.066407.394531 82.9375 60.921875 153.332031 142.863281 166.160156 16.6875 2.457031 33.644531 2.457031 50.328125 0 24.84375-3.757813 48.511719-13.113282 69.207032-27.359375l43.640624 43.648437-11.320312 11.328125c-3.121094 3.121094-3.121094 8.1875 0 11.308594l90.488281 90.511719c21.871094 21.871094 57.332031 21.871094 79.199219 0 21.871094-21.867188 21.871094-57.328125 0-79.199219zm-273.535157-66.078125c-15.140625 2.214844-30.527343 2.214844-45.671875 0-78.601562-11.945312-134.722656-82.445312-128.730468-161.726562 5.988281-79.277344 72.0625-140.550782 151.566406-140.550782 79.507812 0 145.578125 61.273438 151.570312 140.550782 5.988282 79.28125-50.128906 149.78125-128.734375 161.726562zm84.335938-21.320312c8.164062-6.875 15.664062-14.503907 22.402343-22.785157l42.398438 42.28125-22.640625 22.640625zm177.890625 155.289062c-15.632813 15.59375-40.9375 15.59375-56.570313 0l-84.855469-84.859375 56.566407-56.566406 84.859375 84.847656c15.589844 15.636719 15.589844 40.941406 0 56.578125zm0 0"/></g></svg>